<svg width="281" height="281" viewBox="0 0 281 281" fill="none" xmlns="http://www.w3.org/2000/svg">
<circle cx="140.5" cy="140.5" r="140.5" fill="#08CD57"/>
<path fill-rule="evenodd" clip-rule="evenodd" d="M161.097 99.4153C161.097 98.4587 161.097 71.5374 161.097 70.6628C158.817 48.6885 120.986 49.5904 120.279 71.674C120.279 79.4088 120.022 96.6275 119.99 104.253C119.986 106.734 119.407 109.19 118.285 111.48C117.164 113.771 115.522 115.85 113.455 117.599C111.387 119.349 108.934 120.734 106.237 121.675C103.539 122.616 100.65 123.095 97.7348 123.084C96.097 123.084 62.0877 123.303 59.4543 123.084C54.1054 123.026 48.9485 124.779 45.1181 127.957C41.2877 131.135 39.0975 135.477 39.0294 140.03C38.9613 144.582 41.0208 148.97 44.7548 152.23C48.4888 155.49 53.5916 157.354 58.9404 157.412H92.1148C134.442 157.412 161.001 144.676 161.001 113.901L161.097 99.4153Z" fill="white"/>
<path fill-rule="evenodd" clip-rule="evenodd" d="M119.605 180.393C119.605 181.349 120.093 208.478 120.093 209.352C122.374 231.217 160.14 230.37 160.975 208.341C160.975 200.606 161.232 183.388 161.264 175.79C161.264 173.306 161.841 170.847 162.96 168.554C164.08 166.26 165.721 164.178 167.789 162.425C169.856 160.673 172.311 159.286 175.01 158.343C177.71 157.4 180.602 156.92 183.52 156.931C185.158 156.931 219.167 156.712 221.8 156.931C224.509 157.048 227.218 156.698 229.765 155.903C232.312 155.108 234.644 153.884 236.622 152.304C238.6 150.724 240.183 148.82 241.276 146.708C242.37 144.595 242.951 142.316 242.986 140.008C243.021 137.699 242.508 135.409 241.478 133.273C240.448 131.137 238.922 129.2 236.992 127.578C235.062 125.955 232.768 124.681 230.246 123.831C227.724 122.981 225.026 122.572 222.314 122.63H189.076C146.749 122.603 120.093 135.283 120.093 166.003L119.605 180.393Z" fill="#E9ECEF"/>
</svg>
